<?xml version="1.0" encoding="iso-8859-1"?>
<!-- Uploaded to: SVG Repo, www.svgrepo.com, Generator: SVG Repo Mixer Tools -->
<svg height="800px" width="800px" version="1.1" id="Layer_1" xmlns="http://www.w3.org/2000/svg" xmlns:xlink="http://www.w3.org/1999/xlink" 
	 viewBox="0 0 496.819 496.819" xml:space="preserve">
<path style="fill:#C6D5DB;" d="M480.8,292.41H336v-96h144.8c4,0,8-4,8-8s-3.2-8-8-8H336V71.61c0-4-4-8-8-8s-8,3.2-8,8v108.8H176
	V71.61c0-4-4-8-8-8s-8,3.2-8,8v108.8H15.2c-4,0-8,4-8,8s3.2,8,8,8H160v96H15.2c-4,0-8,4-8,8s3.2,8,8,8H160v108.8c0,4,4,8,8,8
	s8-3.2,8-8v-108.8h144v108.8c0,4,4,8,8,8s8-3.2,8-8v-108.8h144.8c4,0,8-4,8-8C488,296.41,484.8,292.41,480.8,292.41z M176,292.41
	v-96h144v96H176z"/>
<path style="fill:#76D1FF;" d="M496,384.41c0,28.8-23.2,52-52,52H52c-28.8,0-52-23.2-52-52v-272c0-28.8,23.2-52,52-52h392.8
	c28.8,0,52,23.2,52,52v272H496z M472,112.41c0-15.2-12.8-28-28-28H52c-15.2,0-28,12.8-28,28v272c0,15.2,12.8,28,28,28h392
	c15.2,0,28-12.8,28-28V112.41z"/>
<path style="fill:#42BAEA;" d="M444,60.41H52c-11.2,0-20,2.4-28,8l17.6,17.6c3.2-0.8,6.4-1.6,10.4-1.6h392.8
	c15.2,0,26.4,12.8,28,24.8v270.4c0,15.2-8.8,32.8-28,32.8h-78.4l27.2,24h51.2c28.8,0,52.8-23.2,52-56.8v-270.4
	C496,80.41,472.8,60.41,444,60.41z"/>
</svg>